<?xml version="1.0" encoding="UTF-8" standalone="no"?>
<!-- Generator: Adobe Illustrator 16.0.0, SVG Export Plug-In . SVG Version: 6.00 Build 0)  -->

<svg
   xmlns:svg="http://www.w3.org/2000/svg"
   xmlns="http://www.w3.org/2000/svg"
   version="1.1"
   id="Capa_1"
   x="0px"
   y="0px"
   width="16"
   height="16"
   viewBox="-3 -3 22 22"
   xml:space="preserve"
  >
	<defs
   id="defs46" />
	<rect width="100%" height="100%" x="-3" y="-3" fill="yellow" />
	<rect width="100%" height="100%" x="-3" y="-3" stroke="1" color="black" fill="none" />
<g
   id="g3"
   transform="matrix(0.34043277,0,0,0.34043277,0.4106045,2.4363032e-8)">
	<g
   id="Layer_1_55_">
		<g
   id="g6">
			<path
   d="m 25.154,17.448 c 0,1.753 1.425,3.175 3.177,3.175 1.751,0 3.175,-1.422 3.175,-3.175 0,-1.756 -1.424,-3.177 -3.175,-3.177 -1.752,0 -3.177,1.421 -3.177,3.177 z"
   id="path8"
   />
			<path
   d="m 41.962,15.511 c -0.6,-0.787 -1.722,-0.937 -2.507,-0.337 l -8.3,6.335 h -1.141 c -0.492,0 -0.92,0.215 -1.24,0.536 l 0.832,6.113 -1.276,1.083 -1.276,-1.083 0.832,-6.113 c -0.32,-0.321 -0.75,-0.536 -1.24,-0.536 h -1.141 l -6.464,-4.934 -2.552,2.553 7.327,5.591 c 0.3,0.229 0.664,0.357 1.041,0.366 v 8.075 l -3.3,11.558 c -0.272,0.951 0.278,1.941 1.229,2.212 0.164,0.047 0.33,0.069 0.492,0.069 0.779,0 1.496,-0.513 1.719,-1.298 l 3.336,-11.68 3.336,11.68 c 0.226,0.785 0.94,1.298 1.72,1.298 0.161,0 0.327,-0.022 0.491,-0.069 0.95,-0.271 1.5,-1.261 1.228,-2.212 L 31.806,33.16 v -8.075 c 0.377,-0.009 0.741,-0.137 1.041,-0.366 l 8.781,-6.701 c 0.784,-0.599 0.934,-1.722 0.334,-2.507 z"
   id="path10"
   />
			<path
   d="m 11.519,21.567 9.028,-9.027 c 2.559,1.449 5.864,1.092 8.046,-1.09 2.62,-2.62 2.619,-6.866 0,-9.484 -2.62,-2.621 -6.867,-2.621 -9.487,-0.002 -2.181,2.182 -2.54,5.487 -1.088,8.047 L 5.193,22.834 c -0.699,0.698 -0.699,1.83 0,2.529 0.349,0.349 0.807,0.523 1.265,0.523 0.458,0 0.916,-0.175 1.265,-0.522 l 1.265,-1.267 2.529,2.53 c 0.349,0.349 0.807,0.522 1.265,0.522 0.458,0 0.915,-0.175 1.265,-0.522 0.699,-0.698 0.699,-1.831 0,-2.529 l -2.528,-2.531 z m 9.8,-17.389 c 1.223,-1.222 3.346,-1.08 4.745,0.317 1.396,1.396 1.537,3.519 0.314,4.741 -1.225,1.223 -3.347,1.08 -4.743,-0.316 C 20.24,7.522 20.098,5.398 21.319,4.178 z"
   id="path12"
   />
		</g>
	</g>
</g>
<g
   id="g14"
   transform="translate(-4.66875,-30.999)">
</g>
<g
   id="g16"
   transform="translate(-4.66875,-30.999)">
</g>
<g
   id="g18"
   transform="translate(-4.66875,-30.999)">
</g>
<g
   id="g20"
   transform="translate(-4.66875,-30.999)">
</g>
<g
   id="g22"
   transform="translate(-4.66875,-30.999)">
</g>
<g
   id="g24"
   transform="translate(-4.66875,-30.999)">
</g>
<g
   id="g26"
   transform="translate(-4.66875,-30.999)">
</g>
<g
   id="g28"
   transform="translate(-4.66875,-30.999)">
</g>
<g
   id="g30"
   transform="translate(-4.66875,-30.999)">
</g>
<g
   id="g32"
   transform="translate(-4.66875,-30.999)">
</g>
<g
   id="g34"
   transform="translate(-4.66875,-30.999)">
</g>
<g
   id="g36"
   transform="translate(-4.66875,-30.999)">
</g>
<g
   id="g38"
   transform="translate(-4.66875,-30.999)">
</g>
<g
   id="g40"
   transform="translate(-4.66875,-30.999)">
</g>
<g
   id="g42"
   transform="translate(-4.66875,-30.999)">
</g>

</svg>