<?xml version="1.0" encoding="UTF-8" standalone="no"?>
<!-- Generator: Adobe Illustrator 16.0.0, SVG Export Plug-In . SVG Version: 6.00 Build 0)  -->

<svg
   xmlns:dc="http://purl.org/dc/elements/1.1/"
   xmlns:cc="http://creativecommons.org/ns#"
   xmlns:rdf="http://www.w3.org/1999/02/22-rdf-syntax-ns#"
   xmlns:svg="http://www.w3.org/2000/svg"
   xmlns="http://www.w3.org/2000/svg"
   version="1.1"
   id="Capa_1"
   x="0px"
   y="0px"
   width="16"
   height="16"
   viewBox="-3 -3 22 22"
   xml:space="preserve"
>
	<defs
   id="defs50" />
	<rect width="100%" height="100%" x="-3" y="-3" stroke="1" color="black" fill="yellow" />
<g
   id="g3"
   transform="matrix(0.34043278,0,0,0.34043278,-0.33532629,0)">
	<g
   id="Layer_1_22_"  stroke="#CCCCCC" >
		<g
   id="g6">
			<path
   d="M 6.12,38.52 V 5.136 H 33.082 V 33.173 L 38.219,28.93 V 2.568 C 38.219,1.15 37.07,0 35.652,0 H 3.552 C 2.134,0 0.985,1.15 0.985,2.568 v 38.519 c 0,1.418 1.149,2.568 2.567,2.568 H 25.96 L 22.33,38.52 H 6.12 z"
   id="path8"
   />
			<path
   d="m 45.613,27.609 c -0.473,-0.446 -1.2,-0.467 -1.698,-0.057 l -11.778,9.734 -7.849,-4.709 c -0.521,-0.312 -1.188,-0.219 -1.603,0.229 -0.412,0.444 -0.457,1.117 -0.106,1.613 l 8.506,12.037 c 0.238,0.337 0.625,0.539 1.037,0.543 0.004,0 0.008,0 0.012,0 0.408,0 0.793,-0.193 1.035,-0.525 l 12.6,-17.173 c 0.38,-0.521 0.315,-1.246 -0.156,-1.692 z"
   id="path10" fill="green"
   />
			<path
   d="M 27.306,8.988 H 11.897 c -1.418,0 -2.567,1.15 -2.567,2.568 0,1.418 1.149,2.568 2.567,2.568 h 15.408 c 1.418,0 2.566,-1.15 2.566,-2.568 0,-1.418 -1.147,-2.568 -2.565,-2.568 z"
   id="path12"  fill="#FF221a"
   />
			<path
   d="M 27.306,16.691 H 11.897 c -1.418,0 -2.567,1.15 -2.567,2.568 0,1.418 1.149,2.568 2.567,2.568 h 15.408 c 1.418,0 2.566,-1.149 2.566,-2.568 0.003,-1.418 -1.147,-2.568 -2.565,-2.568 z"
   id="path14"  fill="#CC221a"
   />
			<path
   d="M 27.306,24.395 H 11.897 c -1.418,0 -2.567,1.15 -2.567,2.568 0,1.418 1.149,2.568 2.567,2.568 h 15.408 c 1.418,0 2.566,-1.15 2.566,-2.568 0.003,-1.418 -1.147,-2.568 -2.565,-2.568 z"
   id="path16"  fill="#99221a"
   />
		</g>
	</g>
</g>
</svg>